<?xml version="1.0" encoding="UTF-8"?>
<svg class="svgicon icon_sort" width="16" height="17" fill="currentColor" aria-hidden="" role="img" version="1.1" viewBox="0 0 455 488" xmlns="http://www.w3.org/2000/svg">
<path d="m304 392v48c0 4.5-3.5 8-8 8h-64c-4.5 0-8-3.5-8-8v-48c0-4.5 3.5-8 8-8h64c4.5 0 8 3.5 8 8zm-120-32c0 2.25-1 4.25-2.5 6l-79.75 79.75c-1.75 1.5-3.75 2.25-5.75 2.25s-4-0.75-5.75-2.25l-80-80c-2.25-2.5-3-5.75-1.75-8.75s4.25-5 7.5-5h48v-344c0-4.5 3.5-8 8-8h48c4.5 0 8 3.5 8 8v344h48c4.5 0 8 3.5 8 8zm168-96v48c0 4.5-3.5 8-8 8h-112c-4.5 0-8-3.5-8-8v-48c0-4.5 3.5-8 8-8h112c4.5 0 8 3.5 8 8zm48-128v48c0 4.5-3.5 8-8 8h-160c-4.5 0-8-3.5-8-8v-48c0-4.5 3.5-8 8-8h160c4.5 0 8 3.5 8 8zm48-128v48c0 4.5-3.5 8-8 8h-208c-4.5 0-8-3.5-8-8v-48c0-4.5 3.5-8 8-8h208c4.5 0 8 3.5 8 8z"/>
</svg>
